<svg xmlns="http://www.w3.org/2000/svg" width="20" height="20" viewBox="0 0 20 20">
  <g id="Icone_relatorio_de_medição" data-name="Icone relatorio de medição" transform="translate(10452 6141)">
    <path id="Shape" d="M0,0H20V20H0Z" transform="translate(-10452 -6141)" fill="none" fill-rule="evenodd"/>
    <path id="União_" data-name="União " d="M.527,18a.546.546,0,0,1-.374-.146A.487.487,0,0,1,0,17.5L.007.5A.513.513,0,0,1,.535,0h10.11a.545.545,0,0,1,.4.17L13.87,3.227A.476.476,0,0,1,14,3.555V17.5a.512.512,0,0,1-.527.5Zm.527-1H12.947V5.18H9.072V1H1.061ZM10.439,3.8h2.508V3.741l-2.508-2.71Z" transform="translate(-10449 -6140)" fill="#444"/>
    <path id="Caminho" d="M-13371.627-6395.454v3.7" transform="translate(2926.732 264.978)" fill="none" stroke="#444" stroke-linecap="square" stroke-width="0.8"/>
    <path id="Caminho-2" data-name="Caminho" d="M-13371.627-6395.454v4.365" transform="translate(2928.69 264.317)" fill="none" stroke="#444" stroke-linecap="square" stroke-width="0.8"/>
    <path id="Caminho-3" data-name="Caminho" d="M-13371.627-6395.454v4.365" transform="translate(2932.604 264.317)" fill="none" stroke="#444" stroke-linecap="square" stroke-width="0.8"/>
    <path id="Caminho-4" data-name="Caminho" d="M-13371.627-6395.454v3.7" transform="translate(2930.647 264.978)" fill="none" stroke="#444" stroke-linecap="square" stroke-width="0.8"/>
    <path id="Caminho-5" data-name="Caminho" d="M-13373.048-6390.079h7.816" transform="translate(2927.141 265.279)" fill="none" stroke="#444" stroke-linecap="round" stroke-width="0.8"/>
    <path id="Caminho-6" data-name="Caminho" d="M-13373.049-6390.079h5.092" transform="translate(2926.513 256.188)" fill="none" stroke="#444" stroke-linecap="round" stroke-width="0.8"/>
    <path id="Caminho-7" data-name="Caminho" d="M-13373.049-6390.079h5.092" transform="translate(2926.513 254.197)" fill="none" stroke="#444" stroke-linecap="round" stroke-width="0.8"/>
  </g>
</svg>
