<svg xmlns="http://www.w3.org/2000/svg" width="20" height="20" viewBox="0 0 20 20">
  <g id="Icone_indicadores" data-name="Icone indicadores" transform="translate(-272 -700)">
    <path id="Shape" d="M0,0H20V20H0Z" transform="translate(272 700)" fill="none" fill-rule="evenodd"/>
    <path id="Caminho_3013" data-name="Caminho 3013" d="M-13347.814-6400.592v16.952h16" transform="translate(13621.814 7102.125)" fill="none" stroke="#444" stroke-linecap="round" stroke-linejoin="round" stroke-width="1"/>
    <path id="Uni達o_101" data-name="Uni達o 101" d="M13636.67,7116.569v-7.705l1.44-1.862,1.236.722v8.845Zm-3.889,0v-8.051l2.766.822v7.229Zm-3.893,0v-7.017l2.766-2.287v9.3Zm-3.889,0v-3.741l2.767-2.489v6.23Z" transform="translate(-13349.953 -6399.267)" fill="#444"/>
    <path id="Uni達o_100" data-name="Uni達o 100" d="M13625.1,7116.855a.507.507,0,0,1,.081-.7l6.421-5.142.258.1,3.817,1.438,1.7-2.06-.244-.148-1.345-.88L13640,7107v5.077l-1.611-.972-.158-.1-2.239,2.725-4.211-1.588-5.985,4.8a.474.474,0,0,1-.3.106A.49.49,0,0,1,13625.1,7116.855Z" transform="translate(-13350 -6405.998)" fill="#444"/>
  </g>
</svg>
