<svg xmlns="http://www.w3.org/2000/svg" width="20" height="20" viewBox="0 0 20 20">
  <g id="Icone_VRL" data-name="Icone VRL" transform="translate(2 0.724)">
    <path id="Shape" d="M0,0H20V20H0Z" transform="translate(-2 -0.724)" fill="none" fill-rule="evenodd"/>
    <path id="Caminho" d="M-23900.953,1134.875h-10.508a1.946,1.946,0,0,1-1.586-.64,1.936,1.936,0,0,1-.385-1.41v-12.759c0-1.64,1.021-2.15,1.559-2.19l.039,0h1.74a.547.547,0,0,1,.539.553.547.547,0,0,1-.539.553h-1.7c-.123.024-.549.172-.549,1.086v12.8a.28.28,0,0,1-.01.09.865.865,0,0,0,.141.574,1.009,1.009,0,0,0,.754.242h10.506a1.006,1.006,0,0,0,.314-.062c.113-.048.113-.081.113-.126v-4.187a.548.548,0,0,1,.543-.553.548.548,0,0,1,.541.553v4.187a1.185,1.185,0,0,1-.34.849A1.729,1.729,0,0,1-23900.953,1134.875Z" transform="translate(23914.443 -1116.599)" fill="#444"/>
    <path id="Caminho-2" data-name="Caminho" d="M-23911.463,1131.4a.559.559,0,0,1-.283-.077.562.562,0,0,1-.2-.769l.441-.807a.568.568,0,0,1,.773-.2.567.567,0,0,1,.2.769l-.443.807A.561.561,0,0,1-23911.463,1131.4Z" transform="translate(23914.984 -1115.442)" fill="#444"/>
    <path id="Caminho-3" data-name="Caminho" d="M-23904.156,1131.187a.482.482,0,0,1-.355-.164l-4.047-4.5-1.246,2.548a.48.48,0,0,1-.676.248.6.6,0,0,1-.223-.756l1.563-3.238a.505.505,0,0,1,.367-.3.485.485,0,0,1,.08-.007.481.481,0,0,1,.357.164l4.061,4.524,2.846-5.746a.477.477,0,0,1,.684-.219.6.6,0,0,1,.2.764l-3.166,6.4a.51.51,0,0,1-.367.284A.45.45,0,0,1-23904.156,1131.187Z" transform="translate(23914.992 -1116.167)" fill="#444"/>
    <path id="Caminho-4" data-name="Caminho" d="M-23902.164,1123.395l2.469,1.672-.139-2.426Z" transform="translate(23914.85 -1116.295)" fill="#444"/>
    <path id="Caminho-5" data-name="Caminho" d="M-23901.533,1121.941h-.016a.511.511,0,0,1-.5-.524c0-.006.016-.612,0-1.83a.675.675,0,0,0-.18-.512.82.82,0,0,0-.508-.181h-3.191a.51.51,0,0,1-.51-.51.51.51,0,0,1,.51-.51h3.189a1.831,1.831,0,0,1,1.215.46,1.684,1.684,0,0,1,.5,1.239c.016,1.242,0,1.846,0,1.871A.511.511,0,0,1-23901.533,1121.941Z" transform="translate(23916.016 -1116.598)" fill="#444"/>
    <path id="Retângulo" d="M1.5,1a.5.5,0,0,0,0,1h2a.5.5,0,1,0,0-1h-2m0-1h2a1.5,1.5,0,1,1,0,3h-2a1.5,1.5,0,0,1,0-3Z" transform="translate(5.5 0.276)" fill="#444"/>
  </g>
</svg>
