<svg xmlns="http://www.w3.org/2000/svg" width="20" height="20" viewBox="0 0 20 20">
  <g id="Icone-admin" transform="translate(-32 -485.844)">
    <rect id="Retângulo" width="20" height="20" transform="translate(32 485.844)" fill="none"/>
    <path id="Caminho" d="M106.821,218.5h0a3.905,3.905,0,0,0,0-7.811h0a3.905,3.905,0,0,0,0,7.811Zm0-7.1h0a3.191,3.191,0,0,1,0,6.383h0a3.191,3.191,0,0,1,0-6.383Z" transform="translate(-66.584 276.236)" fill="#444"/>
    <path id="Caminho-2" data-name="Caminho" d="M139.159,264.541a1.428,1.428,0,1,1,1.428-1.428A1.429,1.429,0,0,1,139.159,264.541Zm0-2.141a.714.714,0,1,0,.714.714A.715.715,0,0,0,139.159,262.4Z" transform="translate(-93.113 237.368)" fill="#444" stroke="rgba(0,0,0,0)" stroke-width="1"/>
    <path id="Caminho-3" data-name="Caminho" d="M130.042,258.252a1.072,1.072,0,0,1-1.071-1.071v-.032a.228.228,0,0,0-.152-.2.242.242,0,0,0-.277.038l-.02.019a1.071,1.071,0,0,1-1.514-1.516l.021-.021a.238.238,0,0,0-.174-.4H126.8a1.071,1.071,0,0,1,0-2.141h.032a.229.229,0,0,0,.2-.152A.242.242,0,0,0,127,252.5l-.019-.019a1.072,1.072,0,0,1,.758-1.829h0a1.065,1.065,0,0,1,.758.314l.021.021a.229.229,0,0,0,.253.044.356.356,0,0,1,.071-.023.231.231,0,0,0,.1-.191v-.059a1.071,1.071,0,1,1,2.141,0v.032a.238.238,0,0,0,.4.163l.016-.016a1.071,1.071,0,0,1,1.515,1.515l-.022.022a.23.23,0,0,0-.044.253.352.352,0,0,1,.023.07.232.232,0,0,0,.192.1h.06a1.071,1.071,0,0,1,0,2.141h-.032a.232.232,0,0,0-.211.14v0a.231.231,0,0,0,.046.256l.018.018a1.071,1.071,0,1,1-1.514,1.516l-.021-.021a.243.243,0,0,0-.165-.062.238.238,0,0,0-.233.234v.056A1.072,1.072,0,0,1,130.042,258.252ZM128.7,256.2a.948.948,0,0,1,.383.081.931.931,0,0,1,.6.857v.04a.357.357,0,0,0,.714,0v-.061a.952.952,0,0,1,.932-.943.984.984,0,0,1,.679.265l.026.026a.357.357,0,1,0,.506-.5l-.02-.021a.95.95,0,0,1,.671-1.616h.034a.357.357,0,0,0,0-.714h-.061a.946.946,0,0,1-.868-.573.358.358,0,0,1-.026-.094.941.941,0,0,1,.218-.975l.025-.024a.357.357,0,0,0-.506-.5l-.021.021a.952.952,0,0,1-1.616-.669v-.037a.357.357,0,0,0-.714,0v.061a.946.946,0,0,1-.573.867.349.349,0,0,1-.094.026.94.94,0,0,1-.974-.216l-.024-.024a.355.355,0,0,0-.253-.105h0a.358.358,0,0,0-.253.611l.021.021a.974.974,0,0,1-.664,1.644h-.04a.357.357,0,0,0,0,.714h.061a.952.952,0,0,1,.679,1.61l-.027.027a.357.357,0,0,0,0,.505.367.367,0,0,0,.505,0l.022-.022A.945.945,0,0,1,128.7,256.2Zm3.95-1.163h0Z" transform="translate(-83.969 246.513)" fill="#444"/>
    <path id="Caminho-4" data-name="Caminho" d="M99.539,250.451H93.419a.975.975,0,0,1-.974-.974v-1.153a3.374,3.374,0,0,1,3.369-3.369H96.2a5.175,5.175,0,0,0,4.2,0h.386a3.35,3.35,0,0,1,1.9.587l.7-.366a4.064,4.064,0,0,0-2.6-.934h-.542l-.071.033a4.462,4.462,0,0,1-3.743,0l-.071-.033h-.542a4.089,4.089,0,0,0-4.083,4.083v1.153a1.69,1.69,0,0,0,1.687,1.687h6.213Z" transform="translate(-58.059 250.665)" fill="#444"/>
  </g>
</svg>
